<?xml version="1.0" standalone="no"?><!DOCTYPE svg PUBLIC "-//W3C//DTD SVG 1.1//EN" "http://www.w3.org/Graphics/SVG/1.1/DTD/svg11.dtd"><svg t="1727264193754" class="icon" viewBox="0 0 1024 1024" version="1.1" xmlns="http://www.w3.org/2000/svg" p-id="981" xmlns:xlink="http://www.w3.org/1999/xlink" width="200" height="200"><path d="M464.0768 359.6288a30.72 30.72 0 0 1-24.576-49.1008 213.8112 213.8112 0 0 1 278.272-57.1904 30.72 30.72 0 0 1-30.72 53.1968 152.32 152.32 0 0 0-198.2976 40.96 30.72 30.72 0 0 1-24.6784 12.1344z" fill="#1afa29" p-id="982"></path><path d="M624.0768 89.7536A320.8704 320.8704 0 0 0 309.2992 473.088l-182.3744 214.272a110.9504 110.9504 0 0 0 3.072 147.1488l61.44 66.56a111.5648 111.5648 0 0 0 149.8112 11.9296l235.52-184.7808a327.68 327.68 0 0 0 47.3088 3.4816 320.9216 320.9216 0 0 0 0-641.8432zM303.36 864.5632a49.7664 49.7664 0 0 1-66.56-5.12l-61.44-66.56a49.4592 49.4592 0 0 1-1.6384-65.8432l157.6448-185.1904a322.56 322.56 0 0 0 171.6736 165.8368z m320.7168-194.56a259.4816 259.4816 0 1 1 259.4816-259.4816 259.7888 259.7888 0 0 1-259.4816 259.6352z" fill="#1afa29" p-id="983"></path></svg>